# xmcd
#
# Track frame offsets:
#       150
#       12839
#       25017
#       36742
#       49712
#       60723
#       71904
#       83510
#       99102
#       114672
#       130093
#       142482
#
# Disc length: 2155 seconds
#
# Revision: 1
# Processed by: cddbd v1.4PL0 Copyright (c) Steve Scherf et al.
# Submitted via: MusiCat 1.0
#
DISCID=a508690c
DTITLE=Jon Langford and his Sadies - Mayors of the Moon
DYEAR=1900
DGENRE=
TTITLE0=Drugstore
TTITLE1=Looking Good for Radio
TTITLE2=American Pageant
TTITLE3=Little Vampires
TTITLE4=What Makes Johnny Run?
TTITLE5=Strange Birds
TTITLE6=Up To My Neck In This
TTITLE7=The Mayor of the Moon
TTITLE8=Last King of the Road
TTITLE9=Shipwreck
TTITLE10=Solitaire Song
TTITLE11=Are You An Entertainer?
EXTD=0\n\n\n
EXTT0=
EXTT1=
EXTT2=
EXTT3=
EXTT4=
EXTT5=
EXTT6=
EXTT7=
EXTT8=
EXTT9=
EXTT10=
EXTT11=
PLAYORDER=
